<svg width="200" height="200" viewBox="0 0 200 200" fill="none" xmlns="http://www.w3.org/2000/svg">
<path d="M35.4167 1.61203e-05H164.583C169.236 -0.00448106 173.843 0.932018 178.142 2.75592C182.441 4.57981 186.347 7.25531 189.636 10.6293C192.926 14.0032 195.535 18.0094 197.313 22.4186C199.091 26.8277 200.004 31.5533 200 36.3248V163.675C200.004 168.447 199.091 173.172 197.313 177.581C195.535 181.991 192.926 185.997 189.636 189.371C186.347 192.745 182.441 195.42 178.142 197.244C173.843 199.068 169.236 200.004 164.583 200H35.4167C30.7645 200.004 26.157 199.068 21.8581 197.244C17.5592 195.42 13.6532 192.745 10.3635 189.371C7.07392 185.997 4.46532 181.991 2.68702 177.581C0.908717 173.172 -0.00436903 168.447 1.57173e-05 163.675V36.3248C-0.00436903 31.5533 0.908717 26.8277 2.68702 22.4186C4.46532 18.0094 7.07392 14.0032 10.3635 10.6293C13.6532 7.25531 17.5592 4.57981 21.8581 2.75592C26.157 0.932018 30.7645 -0.00448106 35.4167 1.61203e-05V1.61203e-05Z" fill="#FF6C37"/>
<path d="M125.667 74.6713L94.0228 106.316L85.0994 97.3922C116.219 66.2728 119.293 68.9723 125.667 74.6713Z" fill="white"/>
<path d="M94.0228 107.065C93.7978 107.065 93.6478 106.99 93.4978 106.84L84.4995 97.9169C84.1995 97.617 84.1995 97.1671 84.4995 96.8671C116.144 65.2228 119.443 68.2223 126.117 74.2212C126.267 74.3712 126.342 74.5211 126.342 74.7461C126.342 74.9711 126.267 75.121 126.117 75.271L94.4727 106.84C94.3977 106.99 94.1727 107.065 94.0228 107.065ZM86.1492 97.392L94.0228 105.266L124.542 74.7461C118.993 69.797 115.244 68.2973 86.1492 97.392Z" fill="#FF6C37"/>
<path d="M103.096 115.389L94.4727 106.765L126.117 75.1211C134.59 83.6696 121.918 97.5421 103.096 115.389Z" fill="white"/>
<path d="M103.096 116.139C102.871 116.139 102.721 116.064 102.571 115.914L93.9478 107.29C93.7978 107.14 93.7978 106.99 93.7978 106.765C93.7978 106.541 93.8728 106.391 94.0228 106.241L125.667 74.5963C125.967 74.2964 126.417 74.2964 126.717 74.5963C128.667 76.396 129.716 78.9455 129.641 81.57C129.491 89.8935 120.043 100.467 103.696 115.914C103.471 116.064 103.246 116.139 103.096 116.139ZM95.5225 106.765C100.322 111.64 102.346 113.589 103.096 114.339C115.694 102.341 127.917 90.0435 127.992 81.57C128.067 79.6204 127.317 77.6707 126.042 76.171L95.5225 106.765Z" fill="#FF6C37"/>
<path d="M85.2493 97.6171L91.6232 103.991C91.7731 104.141 91.7731 104.291 91.6232 104.441C91.5482 104.516 91.5482 104.516 91.4732 104.516L78.2756 107.365C77.6007 107.44 77.0008 106.99 76.8508 106.316C76.7758 105.941 76.9258 105.566 77.1508 105.341L84.7994 97.6921C84.9494 97.5422 85.1743 97.4672 85.2493 97.6171Z" fill="white"/>
<path d="M78.0506 108.115C76.9258 108.115 76.101 107.215 76.101 106.091C76.101 105.566 76.3259 105.041 76.7009 104.666L84.3495 97.0173C84.7994 96.6424 85.3993 96.6424 85.8492 97.0173L92.2231 103.391C92.673 103.766 92.673 104.441 92.2231 104.891C92.0731 105.041 91.9231 105.116 91.6982 105.191L78.5006 108.04C78.3506 108.04 78.2006 108.115 78.0506 108.115ZM85.0244 98.442L77.6757 105.791C77.5257 105.941 77.4507 106.166 77.6007 106.391C77.6757 106.616 77.9007 106.691 78.1256 106.616L90.4984 103.916L85.0244 98.442Z" fill="#FF6C37"/>
<path d="M142.389 57.1243C137.59 52.4751 129.866 52.6251 125.217 57.4992C120.568 62.3733 120.718 70.0219 125.592 74.6711C129.566 78.4954 135.565 79.1703 140.289 76.3208L131.741 67.7724L142.389 57.1243Z" fill="white"/>
<path d="M133.991 78.7954C126.867 78.7954 121.093 73.0214 121.093 65.8977C121.093 58.774 126.867 53 133.991 53C137.29 53 140.514 54.2748 142.914 56.5994C143.064 56.7493 143.139 56.8993 143.139 57.1243C143.139 57.3492 143.064 57.4992 142.914 57.6492L132.791 67.7723L140.739 75.7209C141.039 76.0209 141.039 76.4708 140.739 76.7707C140.664 76.8457 140.664 76.8457 140.589 76.9207C138.64 78.1205 136.315 78.7954 133.991 78.7954ZM133.991 54.5747C127.692 54.5747 122.593 59.6738 122.668 65.9727C122.668 72.2715 127.767 77.3706 134.066 77.2956C135.79 77.2956 137.515 76.9207 139.09 76.0958L131.216 68.2972C131.066 68.1473 130.991 67.9973 130.991 67.7723C130.991 67.5474 131.066 67.3974 131.216 67.2474L141.264 57.1992C139.24 55.4746 136.69 54.5747 133.991 54.5747Z" fill="#FF6C37"/>
<path d="M142.614 57.3494L142.464 57.1995L131.741 67.7726L140.214 76.246C141.039 75.7211 141.864 75.1212 142.539 74.4464C147.338 69.7222 147.338 62.0736 142.614 57.3494Z" fill="white"/>
<path d="M140.289 77.0708C140.064 77.0708 139.914 76.9958 139.765 76.8458L131.216 68.2974C131.066 68.1474 130.991 67.9974 130.991 67.7725C130.991 67.5475 131.066 67.3975 131.216 67.2476L141.864 56.5995C142.164 56.2995 142.614 56.2995 142.914 56.5995L143.139 56.7494C148.163 61.7735 148.163 69.8721 143.214 74.9712C142.464 75.721 141.639 76.3959 140.739 76.9208C140.514 76.9958 140.364 77.0708 140.289 77.0708ZM132.791 67.7725L140.364 75.3461C140.964 74.9712 141.564 74.4463 142.014 73.9963C146.288 69.7221 146.513 62.7484 142.389 58.2492L132.791 67.7725Z" fill="#FF6C37"/>
<path d="M126.942 76.0209C125.142 74.2212 122.218 74.2212 120.418 76.0209L92.1481 104.291L96.8722 109.015L126.792 82.7697C128.742 81.12 128.891 78.1955 127.242 76.2459C127.092 76.1709 127.017 76.0959 126.942 76.0209Z" fill="white"/>
<path d="M96.7972 109.765C96.5723 109.765 96.4223 109.69 96.2723 109.54L91.5482 104.816C91.2482 104.516 91.2482 104.066 91.5482 103.766L119.818 75.4961C121.918 73.3965 125.292 73.3965 127.392 75.4961C129.491 77.5957 129.491 80.9701 127.392 83.0697C127.317 83.1447 127.242 83.2197 127.167 83.2947L97.2472 109.54C97.1722 109.69 97.0222 109.765 96.7972 109.765ZM93.1979 104.291L96.8722 107.965L126.267 82.1699C127.917 80.8201 128.067 78.3456 126.717 76.6959C125.367 75.0462 122.893 74.8962 121.243 76.246C121.168 76.321 121.093 76.3959 120.943 76.4709L93.1979 104.291Z" fill="#FF6C37"/>
<path d="M70.477 136.46C70.1771 136.61 70.0271 136.91 70.1021 137.21L71.3768 142.609C71.6768 143.359 71.2269 144.259 70.402 144.484C69.8021 144.709 69.1272 144.484 68.7523 144.034L60.5038 135.86L87.4239 108.94L96.7223 109.09L103.021 115.389C101.521 116.664 92.448 125.437 70.477 136.46Z" fill="white"/>
<path d="M69.8771 145.234C69.2772 145.234 68.6773 145.009 68.3024 144.559L60.1289 136.385C59.9789 136.235 59.9039 136.085 59.9039 135.86C59.9039 135.635 59.9789 135.485 60.1289 135.335L87.049 108.415C87.199 108.265 87.4239 108.19 87.5739 108.19L96.8722 108.34C97.0972 108.34 97.2472 108.415 97.3971 108.565L103.696 114.864C103.846 115.014 103.921 115.239 103.921 115.464C103.921 115.689 103.846 115.839 103.621 115.989L103.096 116.439C95.1475 123.412 84.3495 130.386 70.9269 137.06L72.2017 142.384C72.4266 143.359 71.9767 144.409 71.0769 144.934C70.627 145.159 70.252 145.234 69.8771 145.234ZM61.6286 135.86L69.3522 143.509C69.5772 143.884 70.0271 144.034 70.402 143.809C70.7769 143.584 70.9269 143.134 70.702 142.759L69.4272 137.36C69.2772 136.685 69.5772 136.085 70.177 135.785C83.4497 129.111 94.1727 122.213 102.046 115.389L96.4973 109.84L87.8739 109.69L61.6286 135.86Z" fill="#FF6C37"/>
<path d="M54.1299 142.309L60.5788 135.86L70.177 145.458L54.8798 144.409C54.2049 144.334 53.755 143.734 53.83 143.059C53.83 142.759 53.905 142.459 54.1299 142.309Z" fill="white"/>
<path d="M70.177 146.133L54.8048 145.084C53.68 145.009 52.9302 144.034 53.0051 142.909C53.0801 142.459 53.2301 142.009 53.605 141.709L60.0539 135.26C60.3538 134.96 60.8037 134.96 61.1037 135.26L70.702 144.859C70.9269 145.084 71.0019 145.384 70.8519 145.683C70.702 145.983 70.477 146.133 70.177 146.133ZM60.5788 136.91L54.6548 142.834C54.4299 142.984 54.4299 143.359 54.6548 143.509C54.7298 143.584 54.8048 143.659 54.9548 143.659L68.2274 144.559L60.5788 136.91Z" fill="#FF6C37"/>
<path d="M84.7994 112.389C84.3495 112.389 84.0495 112.014 84.0495 111.64C84.0495 111.415 84.1245 111.265 84.2745 111.115L91.5482 103.841C91.8481 103.541 92.2981 103.541 92.598 103.841L97.3222 108.565C97.5471 108.79 97.6221 109.015 97.5471 109.315C97.4721 109.54 97.2472 109.765 96.9472 109.84L84.9494 112.389C84.8744 112.389 84.7994 112.389 84.7994 112.389ZM92.0731 105.416L87.124 110.365L95.2225 108.64L92.0731 105.416Z" fill="#FF6C37"/>
<path d="M96.7223 109.09L88.4738 110.89C87.8739 111.04 87.274 110.665 87.124 110.065C87.049 109.69 87.124 109.315 87.4239 109.015L91.9981 104.441L96.7223 109.09Z" fill="white"/>
<path d="M88.3238 111.64C87.274 111.64 86.4491 110.815 86.4491 109.765C86.4491 109.24 86.6741 108.79 86.974 108.415L91.5482 103.841C91.8482 103.541 92.2981 103.541 92.598 103.841L97.3222 108.565C97.5471 108.79 97.6221 109.015 97.5471 109.315C97.4721 109.54 97.2472 109.765 96.9472 109.84L88.6987 111.64C88.5487 111.64 88.3988 111.64 88.3238 111.64ZM92.0731 105.416L88.0238 109.465C87.8739 109.615 87.8739 109.765 87.9489 109.915C88.0238 110.065 88.1738 110.14 88.3988 110.14L95.2975 108.64L92.0731 105.416Z" fill="#FF6C37"/>
<path d="M142.689 64.548C142.539 64.0981 142.014 63.8731 141.564 64.0231C141.114 64.173 140.889 64.698 141.039 65.1479C141.039 65.2229 141.114 65.2978 141.114 65.3728C141.564 66.2727 141.414 67.3975 140.814 68.2223C140.514 68.5973 140.589 69.1222 140.889 69.4221C141.264 69.722 141.789 69.6471 142.089 69.2721C143.214 67.8474 143.439 66.0477 142.689 64.548Z" fill="#FF6C37"/>
</svg>
