<svg width="200" height="200" viewBox="0 0 200 200" fill="none" xmlns="http://www.w3.org/2000/svg">
<path d="M35.4167 1.61203e-05H164.583C169.236 -0.00448106 173.843 0.932018 178.142 2.75592C182.441 4.57981 186.347 7.25531 189.636 10.6293C192.926 14.0032 195.535 18.0094 197.313 22.4186C199.091 26.8277 200.004 31.5533 200 36.3248V163.675C200.004 168.447 199.091 173.172 197.313 177.581C195.535 181.991 192.926 185.997 189.636 189.371C186.347 192.745 182.441 195.42 178.142 197.244C173.843 199.068 169.236 200.004 164.583 200H35.4167C30.7645 200.004 26.157 199.068 21.8581 197.244C17.5592 195.42 13.6532 192.745 10.3635 189.371C7.07392 185.997 4.46532 181.991 2.68702 177.581C0.908717 173.172 -0.00436903 168.447 1.57173e-05 163.675V36.3248C-0.00436903 31.5533 0.908717 26.8277 2.68702 22.4186C4.46532 18.0094 7.07392 14.0032 10.3635 10.6293C13.6532 7.25531 17.5592 4.57981 21.8581 2.75592C26.157 0.932018 30.7645 -0.00448106 35.4167 1.61203e-05V1.61203e-05Z" fill="#0091E2"/>
<path d="M168.709 88.5037C168.346 88.2069 165.062 85.7182 158.131 85.7182C156.296 85.7182 154.461 85.8552 152.649 86.1977C151.313 76.9051 143.702 72.3843 143.362 72.1789L141.505 71.0829L140.282 72.8638C138.741 75.2612 137.631 77.8869 136.975 80.6724C135.729 85.9694 136.476 90.9467 139.149 95.1935C135.933 96.9972 130.745 97.4539 129.703 97.4767H44.0591C41.8166 97.4767 40.0045 99.3033 40.0045 101.564C39.9139 109.121 41.1824 116.633 43.742 123.733C46.6866 131.542 51.081 137.273 56.7891 140.789C63.1768 144.739 73.5737 146.999 85.375 146.999C90.698 147.022 96.0211 146.52 101.253 145.538C108.525 144.191 115.524 141.634 121.957 137.958C127.257 134.853 132.037 130.926 136.091 126.291C142.864 118.551 146.918 109.92 149.931 102.271H151.132C158.561 102.271 163.137 99.2804 165.651 96.7689C167.327 95.1707 168.641 93.2299 169.479 91.0609L170 89.4855L168.709 88.5037ZM51.987 94.988H63.4712C64.0149 94.988 64.4679 94.5314 64.4679 93.9834V83.6862C64.4679 83.1382 64.0149 82.6816 63.4712 82.6587H51.987C51.4434 82.6587 50.9904 83.1154 50.9904 83.6633V93.9834C50.9904 94.5542 51.4434 94.988 51.987 94.988ZM67.8203 94.988H79.3044C79.8481 94.988 80.3011 94.5314 80.3011 93.9834V83.6862C80.3011 83.1382 79.8481 82.6816 79.3044 82.6587H67.8203C67.254 82.6587 66.8009 83.1154 66.8009 83.6862V93.9834C66.8009 94.5542 67.254 94.988 67.8203 94.988ZM83.8573 95.0108H95.3415C95.8851 95.0108 96.3382 94.5542 96.3382 94.0062V83.709C96.3382 83.161 95.8851 82.7044 95.3415 82.6816H83.8573C83.3137 82.6816 82.8607 83.1382 82.8607 83.6862V94.0062C82.8607 94.5542 83.3137 94.988 83.8573 95.0108ZM99.7359 95.0108H111.22C111.764 95.0108 112.217 94.5542 112.239 94.0062V83.709C112.239 83.1382 111.786 82.6816 111.22 82.6816H99.7359C99.1922 82.6816 98.7392 83.1382 98.7392 83.6862V94.0062C98.7392 94.5542 99.1696 95.0108 99.7359 95.0108ZM67.7976 80.1701H79.2818C79.8254 80.1701 80.2784 79.7134 80.2784 79.1426V68.8454C80.2784 68.2974 79.8254 67.8408 79.2818 67.8408H67.7976C67.2313 67.8408 66.8009 68.2974 66.7783 68.8454V79.1426C66.8009 79.7134 67.254 80.1701 67.7976 80.1701ZM83.8573 80.1701H95.3415C95.8851 80.1701 96.3382 79.7134 96.3382 79.1426V68.8454C96.3382 68.2974 95.8851 67.8408 95.3415 67.8408H83.8573C83.3137 67.8408 82.8607 68.2974 82.8607 68.8454V79.1426C82.8607 79.7134 83.3137 80.1701 83.8573 80.1701ZM99.7359 80.1701H111.22C111.786 80.1701 112.217 79.7134 112.239 79.1426V68.8454C112.239 68.2746 111.786 67.8408 111.22 67.8408H99.7359C99.1922 67.8408 98.7392 68.2974 98.7392 68.8454V79.1426C98.7392 79.7134 99.1696 80.1701 99.7359 80.1701ZM99.7359 65.3521H111.22C111.786 65.3521 112.239 64.8955 112.239 64.3247V54.0046C112.239 53.4566 111.786 53 111.22 53H99.7359C99.1922 53 98.7392 53.4566 98.7392 54.0046V64.3247C98.7392 64.8955 99.1696 65.3521 99.7359 65.3521ZM115.728 95.0108H127.212C127.755 95.0108 128.208 94.5542 128.208 94.0062V83.709C128.208 83.1382 127.755 82.7044 127.212 82.6816H115.728C115.184 82.6816 114.731 83.1382 114.731 83.6862V94.0062C114.731 94.5542 115.184 95.0108 115.728 95.0108Z" fill="white"/>
</svg>
