<svg width="200" height="200" viewBox="0 0 200 200" fill="none" xmlns="http://www.w3.org/2000/svg">
<path d="M35.4167 1.61203e-05H164.583C169.236 -0.00448106 173.843 0.932018 178.142 2.75592C182.441 4.57981 186.347 7.25531 189.636 10.6293C192.926 14.0032 195.535 18.0094 197.313 22.4186C199.091 26.8277 200.004 31.5533 200 36.3248V163.675C200.004 168.447 199.091 173.172 197.313 177.581C195.535 181.991 192.926 185.997 189.636 189.371C186.347 192.745 182.441 195.42 178.142 197.244C173.843 199.068 169.236 200.004 164.583 200H35.4167C30.7645 200.004 26.157 199.068 21.8581 197.244C17.5592 195.42 13.6532 192.745 10.3635 189.371C7.07392 185.997 4.46532 181.991 2.68702 177.581C0.908717 173.172 -0.00436903 168.447 1.57173e-05 163.675V36.3248C-0.00436903 31.5533 0.908717 26.8277 2.68702 22.4186C4.46532 18.0094 7.07392 14.0032 10.3635 10.6293C13.6532 7.25531 17.5592 4.57981 21.8581 2.75592C26.157 0.932018 30.7645 -0.00448106 35.4167 1.61203e-05V1.61203e-05Z" fill="#F0F0F0"/>
<path d="M35.0593 137.528C35.7402 138.739 36.7238 139.647 37.9344 140.328L96.1942 173.922C98.6154 175.359 101.566 175.359 103.912 173.922L162.172 140.328C164.593 138.966 166.03 136.393 166.03 133.594V66.4061C166.03 63.6066 164.593 61.034 162.172 59.6721L103.912 26.0782C101.491 24.6406 98.5397 24.6406 96.1942 26.0782L37.9344 59.6721C35.4376 61.034 34 63.6066 34 66.4061V133.67C34 135.032 34.3026 136.318 35.0593 137.528Z" fill="#009639"/>
<path d="M80.9811 125.714C80.9811 129.875 77.652 133.204 73.4905 133.204C69.3291 133.204 66 129.875 66 125.714V74.3392C66 70.3291 69.5561 67.0757 74.4741 67.0757C78.0303 67.0757 82.1917 68.5132 84.6885 71.6154L86.9584 74.3392L118.282 111.792V74.4905C118.282 70.3291 121.612 67 125.773 67C129.934 67 133.264 70.3291 133.264 74.4905V125.865C133.264 129.875 129.707 133.129 124.789 133.129C121.233 133.129 117.072 131.691 114.575 128.589L80.9811 88.488V125.714Z" fill="white"/>
</svg>
